<svg width="24" height="24" viewBox="0 0 24 24" fill="none" xmlns="http://www.w3.org/2000/svg">
<path d="M3.31793 11.5147L7.4655 13.0627L9.07086 18.2255C9.17358 18.5562 9.57792 18.6784 9.8463 18.459L12.1582 16.5742C12.4006 16.3768 12.7457 16.3669 12.999 16.5508L17.1689 19.5782C17.456 19.7869 17.8627 19.6296 17.9347 19.2826L20.9894 4.58916C21.068 4.2102 20.6956 3.89406 20.3348 4.03362L3.31307 10.6001C2.89301 10.7621 2.89667 11.3568 3.31793 11.5147ZM8.81214 12.2386L16.918 7.24621C17.0637 7.15675 17.2136 7.35373 17.0885 7.46977L10.3988 13.6882C10.1636 13.9071 10.012 14.2 9.969 14.5179L9.74112 16.2067C9.71094 16.4322 9.3942 16.4545 9.33198 16.2363L8.45556 13.1568C8.35518 12.8056 8.50146 12.4304 8.81214 12.2386Z" fill="white"/>
</svg>
