<svg width="24" height="24" viewBox="0 0 24 24" fill="none" xmlns="http://www.w3.org/2000/svg">
<path fill-rule="evenodd" clip-rule="evenodd" d="M20.0253 14.4767L20.0201 14.4975C19.5999 16.1959 17.7059 18.0184 15.9665 18.3976L15.9468 18.4016C14.5404 18.67 13.1236 18.8039 11.7074 18.8039C11.2906 18.8039 10.8737 18.7909 10.4571 18.7676L8.5362 20.7643C8.06066 21.2595 7.22443 20.9224 7.22443 20.2363V18.3403C5.54995 17.8621 3.79693 16.1234 3.39416 14.4974L3.38955 14.4767C2.87015 12.1047 2.87015 9.69936 3.38955 7.32744L3.39416 7.30667C3.81488 5.60824 5.70895 3.78573 7.44777 3.40657L7.46797 3.40253C10.2808 2.86582 13.1334 2.86582 15.9468 3.40253L15.9665 3.40657C17.7059 3.78573 19.5999 5.60824 20.0201 7.30667L20.0253 7.32744C20.5447 9.69942 20.5447 12.1048 20.0253 14.4767ZM7.77038 4.93135C10.3829 4.43446 13.0319 4.43446 15.6439 4.93135C16.7871 5.18585 18.2246 6.56341 18.5052 7.67152C18.9732 9.81547 18.9732 11.9889 18.5052 14.1328C18.2247 15.2409 16.7865 16.6184 15.6439 16.8729C14.1479 17.1573 12.6401 17.279 11.1339 17.2373C11.104 17.2364 11.0752 17.248 11.0543 17.2695C10.8405 17.4889 9.65175 18.7093 9.65175 18.7093L8.15992 20.2404C8.05085 20.354 7.85925 20.2767 7.85925 20.1197V16.979C7.85925 16.9271 7.82214 16.883 7.77124 16.873L7.77038 16.8729C6.6277 16.6184 5.19013 15.2408 4.90907 14.1328C4.44162 11.9888 4.44162 9.81541 4.90907 7.67146C5.19013 6.56341 6.6277 5.18585 7.77038 4.93135ZM14.6429 15.4393C15.1226 15.1816 15.4551 14.7779 15.6837 14.2927C15.8085 14.0277 15.7322 13.7715 15.5106 13.5764C15.2959 13.3873 15.0653 13.2232 14.8328 13.0577L14.7813 13.021C14.5266 12.8396 14.2705 12.66 14.0062 12.4928C13.742 12.3256 13.4286 12.3283 13.1833 12.5288C13.0947 12.6012 13.023 12.697 12.9515 12.7925C12.8204 12.9676 12.69 13.1416 12.4583 13.1686C12.2636 13.1913 12.0917 13.1188 11.9223 13.0474C11.9057 13.0403 11.8891 13.0333 11.8725 13.0264C10.7126 12.5438 10.0059 11.6477 9.58654 10.4954C9.53206 10.3457 9.5361 10.1832 9.6207 10.0456C9.66698 9.97031 9.73052 9.91416 9.79805 9.85858C9.81316 9.84613 9.82822 9.83358 9.84328 9.82102C9.90489 9.76965 9.96658 9.71822 10.033 9.6731C10.373 9.44208 10.4245 9.02714 10.2369 8.68769C9.93176 8.1358 9.55497 7.63533 9.14476 7.15922C8.95501 6.93899 8.69871 6.86703 8.4389 6.99186C8.10602 7.15177 7.79865 7.36877 7.55979 7.6523C7.30523 7.95442 7.06342 8.36866 7.22761 8.76964C7.24591 8.81435 7.26418 8.8591 7.28246 8.90386L7.28335 8.90604C7.44446 9.30065 7.60586 9.69594 7.79375 10.0778C8.23558 10.9759 8.75839 11.8246 9.42627 12.5762C10.6007 13.8981 12.0835 14.7604 13.6945 15.4288C13.7998 15.4725 13.9107 15.5031 14.0258 15.5348L14.0259 15.5348L14.026 15.5349C14.0808 15.55 14.1365 15.5653 14.1931 15.5825C14.2413 15.5677 14.2904 15.5552 14.3393 15.5427L14.3394 15.5427C14.4454 15.5157 14.5503 15.489 14.6429 15.4393ZM13.5809 10.5362C13.5428 10.5373 13.5035 10.5393 13.6036 10.5375C13.6208 10.5363 13.622 10.5358 13.6158 10.5357C13.692 10.5257 13.7675 10.4708 13.7919 10.3652C13.8065 10.3024 13.8005 10.2332 13.7947 10.1673L13.7942 10.1608C13.7108 9.19889 13.1269 8.7765 12.3099 8.71753C12.1792 8.70806 12.0628 8.80144 12.0428 8.92107C12.0208 9.05254 12.0983 9.16605 12.2384 9.20033C12.2989 9.21515 12.3605 9.22077 12.4222 9.2264C12.4922 9.23278 12.5623 9.23918 12.6311 9.25903C12.7329 9.28834 12.8301 9.33393 12.9158 9.39644C13.0974 9.52877 13.2122 9.72891 13.2652 9.94486C13.2883 10.0392 13.299 10.137 13.3095 10.2343L13.3129 10.2653L13.3147 10.2814C13.332 10.4357 13.4197 10.5306 13.5809 10.5362ZM12.2989 8.09309C12.5737 8.13857 12.8448 8.21486 13.0955 8.33761C13.5101 8.54064 13.8636 8.87617 14.095 9.27518C14.32 9.66352 14.417 10.1094 14.4178 10.5557C14.4179 10.6239 14.4212 10.696 14.4431 10.7594C14.5169 10.9729 14.8377 10.9464 14.8936 10.7349C14.9051 10.6913 14.909 10.6458 14.9117 10.6146C14.9126 10.604 14.9134 10.5951 14.9143 10.5884C14.9118 10.5451 14.9095 10.505 14.9074 10.467C14.9025 10.3783 14.8982 10.3014 14.8924 10.2247C14.8902 10.196 14.8851 10.1675 14.8799 10.1391C14.877 10.1235 14.8742 10.1079 14.8719 10.0923C14.7261 9.11642 14.2267 8.38557 13.3523 7.92256C12.9224 7.69489 12.4553 7.59037 11.9717 7.5629C11.8245 7.55459 11.7258 7.65172 11.7194 7.78676C11.7125 7.93087 11.7905 8.02407 11.9368 8.04439C11.9823 8.05072 12.0279 8.05639 12.0736 8.06205C12.1488 8.07139 12.2241 8.08073 12.2989 8.09309ZM15.5412 11.0628C15.5522 11.2143 15.6282 11.3557 15.7971 11.3536C15.9606 11.3517 16.0465 11.2077 16.0347 11.0562C16.0312 11.0119 16.0279 10.9676 16.0245 10.9232L16.0245 10.923L16.0244 10.9228C16.0004 10.6065 15.9763 10.2892 15.9209 9.97799C15.5518 7.90488 13.8361 6.51003 11.7428 6.43818C11.9952 6.44587 13.6463 6.49131 11.7119 6.43708C11.7021 6.43704 11.6924 6.43691 11.6827 6.43675L11.676 6.43664C11.6471 6.43617 11.6183 6.4357 11.5896 6.43726C11.4402 6.44528 11.3077 6.57022 11.3357 6.72714C11.3672 6.90394 11.5449 6.92186 11.6914 6.93663L11.6919 6.93667C11.7003 6.93752 11.7086 6.93836 11.7168 6.93922C11.7909 6.947 11.8652 6.95342 11.9396 6.95985C12.1042 6.97407 12.2688 6.98829 12.4308 7.01719C13.9932 7.29588 15.245 8.5946 15.4631 10.1644C15.4961 10.4014 15.5123 10.6408 15.5285 10.88C15.5327 10.941 15.5368 11.0019 15.5412 11.0628ZM11.7173 6.43737C11.7225 6.43755 11.7311 6.43783 11.7428 6.43818C11.7343 6.43789 11.7258 6.43762 11.7173 6.43737Z" fill="white"/>
</svg>
