<svg width="24" height="24" viewBox="0 0 24 24" fill="none" xmlns="http://www.w3.org/2000/svg">
<g clip-path="url(#clip0)">
<path d="M6.99383 12.5273C8.9218 12.5273 10.4834 10.9649 10.4834 9.03464C10.4834 7.82937 10.9044 6.72877 9.97622 6.1015C9.41977 5.7236 6.97151 5.54504 6.24727 5.54504C5.3868 5.54504 4.2685 6.2462 3.66048 6.76109C2.90237 7.40144 3.50039 7.96559 3.50039 9.03464C3.50039 10.9649 5.06124 12.5273 6.99383 12.5273ZM4.5602 8.69291C5.20055 8.57593 5.63617 8.78758 5.63617 8.78758L6.70906 8.26576C6.70906 8.26576 6.16415 9.05465 6.65518 8.78758C7.74424 8.41969 8.96414 8.57362 9.58678 8.69522C9.60833 8.83145 9.62757 8.97076 9.62757 9.11622C9.62757 10.5532 8.48695 11.7153 7.07234 11.7153C5.6608 11.7153 4.51864 10.5532 4.51864 9.11622C4.5171 8.97076 4.53788 8.83068 4.5602 8.69291Z" fill="#B37E56"/>
<path d="M12.9904 13.0937C12.7964 11.3297 13.6392 10.2653 13.964 9.92431C14.2641 11.7507 15.8404 13.1522 17.7491 13.1522C19.5578 13.1522 21.0679 11.8931 21.4796 10.2075C21.7882 10.7586 22.3139 11.8846 22.1862 13.0937C25.3941 13.0668 23.8132 9.40095 21.5643 8.99842C21.5481 8.8114 21.5327 8.6236 21.4912 8.44351C21.358 7.28441 20.3205 4.92928 17.3497 5.00163C14.7852 5.06089 14.2249 6.98964 14.0933 8.16566C14.0017 8.45505 13.9447 8.75752 13.924 9.07C10.5852 9.65186 10.9531 13.0368 12.9904 13.0937ZM15.9451 8.21569C15.9451 8.21569 16.2745 8.32806 16.2745 9.39864C16.8402 9.59721 17.8245 7.73543 17.8245 7.73543V9.20161C18.4541 9.3717 20.4252 9.14466 20.4252 9.14466L20.4991 9.20854C20.5006 9.24009 20.5083 9.27011 20.5083 9.30243C20.5083 10.8256 19.2707 12.0632 17.7499 12.0632C16.2498 12.0632 15.0292 10.8571 14.9961 9.36247C15.5418 9.1639 15.9451 8.21569 15.9451 8.21569Z" fill="#B37E56"/>
<path d="M18.921 13.6578H17.2649C16.3863 13.6578 15.5533 14.04 14.9921 14.7006L12.8531 17.2182L10.4747 14.3629C9.89178 13.663 9.01748 13.2568 8.09413 13.2568H6.18661C5.32289 13.2568 4.49914 13.6125 3.91746 14.2364L0.0800518 18.3529C-0.0291331 18.47 -0.0262962 18.6499 0.0865292 18.7637L0.722434 19.405C0.835176 19.5187 1.01892 19.5272 1.14214 19.4244L4.46367 16.6541L4.52811 18.6128C4.53521 18.8286 4.71626 18.9999 4.93718 18.9999H9.58781C9.81281 18.9999 9.99562 18.8224 9.99709 18.6026L10.0094 16.7603L12.3788 19.1401C12.5872 19.3494 12.9341 19.3404 13.1308 19.1204L15.7292 16.2138L15.8092 16.8315C15.871 17.3081 15.8147 17.7922 15.6452 18.2432L15.5629 18.462C15.4647 18.7231 15.6625 18.9999 15.9471 18.9999H20.2054C20.5089 18.9999 20.7068 18.6884 20.5722 18.4225L20.5106 18.3009C20.264 17.814 20.1574 17.2709 20.202 16.7293L20.27 15.9037L22.5178 18.8472C22.5916 18.944 22.7177 18.988 22.8376 18.959L23.7666 18.734C23.9791 18.6826 24.0698 18.4365 23.9396 18.2644L21.3648 14.862C20.7917 14.1046 19.8849 13.6578 18.921 13.6578Z" fill="#B37E56"/>
</g>
<defs>
<clipPath id="clip0">
<rect width="24" height="24" fill="white"/>
</clipPath>
</defs>
</svg>
