<svg width="22" height="18" viewBox="0 0 22 18" fill="none" xmlns="http://www.w3.org/2000/svg">
<path d="M7.11084 8.61845C5.87748 8.98583 5.05008 10.0669 5.13326 11.2235C5.52513 10.7763 6.1236 10.3903 6.84856 10.1365L7.11084 8.61845ZM3.29353 10.371L2.20282 4.06015C2.19285 4.0032 2.21244 3.96804 2.21107 3.96699C4.19655 2.83989 6.44328 2.244 8.70824 2.244C8.76358 2.244 8.81927 2.24997 8.87495 2.25068C9.35448 1.77713 9.96566 1.44807 10.6483 1.33663C11.2977 1.23045 11.9563 1.17667 12.6139 1.1496C12.2705 0.659172 11.7724 0.29777 11.1781 0.200388C10.3562 0.0664445 9.53014 0 8.70789 0C6.07272 0 3.47262 0.682727 1.14132 2.00599C0.310486 2.47778 -0.134667 3.46215 0.0361759 4.45003L1.12689 10.7609C1.61604 13.5916 5.81319 15.7558 8.1548 15.7558C8.27821 15.7558 8.38683 15.7396 8.49889 15.7277C8.03415 15.1272 7.50409 14.3046 7.14109 13.3518C5.50451 12.8955 3.49531 11.5371 3.29353 10.371ZM6.64678 5.53845C6.62169 5.39361 6.57013 5.26178 6.50688 5.13767C6.22329 5.45091 5.79635 5.69138 5.29276 5.78173C4.78917 5.87243 4.30724 5.79579 3.93565 5.59997C3.91777 5.73849 3.91365 5.88052 3.93874 6.02536C4.07074 6.78824 4.78367 7.29765 5.53167 7.16335C6.27932 7.02906 6.77878 6.30133 6.64678 5.53845ZM20.8587 4.25034C17.8 2.51435 14.2783 1.88049 10.8219 2.44509C9.88316 2.59837 9.13483 3.36828 8.96433 4.35616L7.87362 10.667C7.34459 13.7273 11.1488 17.567 13.3155 17.9566C15.4821 18.3464 20.3441 16.0655 20.8731 13.0052L21.9638 6.69438C22.1347 5.70614 21.6895 4.72178 20.8587 4.25034ZM11.4661 7.65343C11.5981 6.89055 12.3111 6.38114 13.059 6.51578C13.807 6.65043 14.3062 7.37781 14.1745 8.14069C14.1494 8.28553 14.0979 8.41736 14.0346 8.54146C13.751 8.22823 13.3241 7.98776 12.8205 7.89741C12.3169 7.80671 11.835 7.88335 11.4634 8.07916C11.4452 7.9403 11.441 7.79827 11.4661 7.65343ZM13.8885 14.641C11.9745 14.2968 10.6738 12.5573 10.8278 10.6719C11.5359 11.5698 12.76 12.2951 14.2477 12.5626C15.7355 12.8301 17.129 12.5756 18.0953 11.979C17.6079 13.805 15.8022 14.9852 13.8885 14.641ZM18.3675 9.32052C18.0839 9.00728 17.6567 8.76681 17.1531 8.67646C16.6495 8.58576 16.1676 8.6624 15.796 8.85822C15.7781 8.7197 15.774 8.57767 15.7991 8.43283C15.9311 7.66995 16.644 7.16054 17.392 7.29484C18.1396 7.42948 18.6391 8.15686 18.5074 8.91974C18.4823 9.06493 18.4308 9.19677 18.3675 9.32052Z" fill="#B37E56"/>
</svg>
