<svg width="20" height="20" viewBox="0 0 20 20" fill="none" xmlns="http://www.w3.org/2000/svg">
<path d="M8 6C8 5.44772 8.44771 5 9 5H11C11.5523 5 12 5.44772 12 6V8H14C14.5523 8 15 8.44771 15 9V11C15 11.5523 14.5523 12 14 12H12V14C12 14.5523 11.5523 15 11 15H9C8.44771 15 8 14.5523 8 14V12H6C5.44772 12 5 11.5523 5 11V9C5 8.44771 5.44772 8 6 8H8V6Z" fill="#9E9E9E"/>
<path fill-rule="evenodd" clip-rule="evenodd" d="M0 3C0 1.34315 1.34315 0 3 0H17C18.6569 0 20 1.34315 20 3V17C20 18.6569 18.6569 20 17 20H3C1.34315 20 0 18.6569 0 17V3ZM18 10C18 14.4183 14.4183 18 10 18C5.58172 18 2 14.4183 2 10C2 5.58172 5.58172 2 10 2C14.4183 2 18 5.58172 18 10Z" fill="#9E9E9E"/>
</svg>
