<svg width="20" height="20" viewBox="0 0 20 20" fill="none" xmlns="http://www.w3.org/2000/svg">
<path d="M10 0C4.48625 0 0 4.48625 0 10C0 15.5138 4.48625 20 10 20C15.5138 20 20 15.5138 20 10C20 4.48625 15.5138 0 10 0ZM10.635 3.24875L13.2062 1.86625C14.63 2.43 15.8725 3.35375 16.8175 4.52875L16.205 7.35625L14.2438 8.3175L10.635 5.68875V3.24875ZM6.815 1.85875L9.38625 3.24625V5.68875L5.78 8.3175L3.80875 7.355L3.19625 4.51C4.14375 3.3375 5.38875 2.41875 6.815 1.85875ZM2.7875 14.9425C1.97125 13.755 1.44 12.3588 1.29375 10.85L3.41 8.55125L5.34 9.495L6.79375 13.6238L5.565 15.0962L2.7875 14.9425ZM12.2288 18.4513C11.515 18.64 10.7712 18.75 10 18.75C9.0675 18.75 8.17 18.6 7.32625 18.3288L6.54 15.8813L7.79375 14.375H12.2113L13.4425 15.8325L12.2288 18.4513ZM14.4175 15.0538L13.2088 13.6225L14.6825 9.495L16.6038 8.55375L18.7075 10.8512C18.5812 12.1525 18.1625 13.3663 17.5262 14.44L14.4175 15.0538Z" fill="#9E9E9E"/>
</svg>
