<svg width="18" height="20" viewBox="0 0 18 20" fill="none" xmlns="http://www.w3.org/2000/svg">
<path d="M1 0C0.447715 0 0 0.447715 0 1V8C0 9.65685 1.34315 11 3 11H4L3.55864 18.9445C3.52679 19.5177 3.98301 20 4.5571 20H5.4429C6.01699 20 6.47321 19.5177 6.44136 18.9445L6 11H7C8.65685 11 10 9.65685 10 8V1C10 0.447715 9.55229 0 9 0C8.44771 0 8 0.447715 8 1V7H6V1C6 0.447715 5.55228 0 5 0C4.44772 0 4 0.447715 4 1V7H2V1C2 0.447715 1.55228 0 1 0Z" fill="#B37E56"/>
<path d="M13 6.09902C13 3.13416 15.0927 0.581457 18 0V19C18 19.5523 17.5523 20 17 20H16.1173C15.5213 20 15.0576 19.4819 15.1234 18.8896L15.8889 12H14C13.4477 12 13 11.5523 13 11V6.09902Z" fill="#B37E56"/>
</svg>
