<svg width="22" height="20" viewBox="0 0 22 20" fill="none" xmlns="http://www.w3.org/2000/svg">
<path fill-rule="evenodd" clip-rule="evenodd" d="M9.49614 0.131684C9.97566 0.405694 10.1423 1.01655 9.86824 1.49607L6.72318 6.99993H15.2768L12.1318 1.49607C11.8577 1.01655 12.0243 0.405694 12.5039 0.131684C12.9834 -0.142326 13.5942 0.0242705 13.8682 0.503788L17.5803 6.99993H19.9171C21.2427 6.99993 22.2307 8.0901 21.953 9.2462L19.7222 18.5319C19.5164 19.3882 18.6681 19.9999 17.6863 19.9999H4.31373C3.33194 19.9999 2.48355 19.3882 2.27784 18.5319L0.047013 9.2462C-0.230731 8.0901 0.75734 6.99993 2.0829 6.99993H4.41968L8.13176 0.503788C8.40577 0.0242705 9.01662 -0.142326 9.49614 0.131684ZM16.1961 10.0193C16.7377 10.1277 17.0889 10.6545 16.9806 11.196L15.9806 16.196C15.8723 16.7376 15.3454 17.0888 14.8039 16.9805C14.2623 16.8722 13.9111 16.3454 14.0194 15.8038L15.0194 10.8038C15.1277 10.2623 15.6546 9.91104 16.1961 10.0193ZM12 10.9999C12 10.4476 11.5523 9.99993 11 9.99993C10.4477 9.99993 10 10.4476 10 10.9999V15.9999C10 16.5522 10.4477 16.9999 11 16.9999C11.5523 16.9999 12 16.5522 12 15.9999V10.9999ZM5.80388 10.0193C6.34544 9.91104 6.87227 10.2623 6.98058 10.8038L7.98058 15.8038C8.08889 16.3454 7.73768 16.8722 7.19612 16.9805C6.65456 17.0888 6.12773 16.7376 6.01942 16.196L5.01942 11.196C4.91111 10.6545 5.26232 10.1277 5.80388 10.0193Z" fill="#B37E56"/>
</svg>
