<svg width="108" height="64" viewBox="0 0 108 64" fill="none" xmlns="http://www.w3.org/2000/svg">
<g clip-path="url(#clip0)">
<path fill-rule="evenodd" clip-rule="evenodd" d="M2.04034 45.0929C1.83091 44.9652 1.59068 44.8974 1.34568 44.8971V44.8712C1.10713 44.8708 0.872768 44.9341 0.666575 45.0546C0.460381 45.1751 0.289769 45.3485 0.172208 45.5571C0.0546478 45.7657 -0.00563772 46.0019 -0.00247504 46.2416C0.000687645 46.4813 0.0671849 46.7158 0.190208 46.9212C0.31323 47.1265 0.488359 47.2954 0.69766 47.4103C0.906961 47.5253 1.14292 47.5824 1.38136 47.5756C1.61981 47.5688 1.85218 47.4985 2.05468 47.3718C2.25719 47.2451 2.42254 47.0666 2.53383 46.8546H44.4411C47.2102 46.8546 49.2033 46.1492 51.38 44.2661C52.1165 43.6301 52.7757 42.9089 53.3441 42.1177C54.3569 43.5206 55.6471 44.6982 57.134 45.5765H57.0953L57.2499 45.6445C58.4789 46.4213 59.9001 46.8361 61.3521 46.8417H104.802C104.942 47.1086 105.168 47.3206 105.442 47.4438C105.716 47.5671 106.024 47.5945 106.316 47.5217C106.607 47.449 106.866 47.2802 107.051 47.0423C107.237 46.8044 107.337 46.5111 107.337 46.2091C107.337 45.9071 107.237 45.6138 107.051 45.3759C106.866 45.138 106.607 44.9692 106.316 44.8965C106.024 44.8237 105.716 44.8511 105.442 44.9744C105.168 45.0976 104.942 45.3096 104.802 45.5765H61.2361C59.3171 45.5765 57.5687 44.5444 56.139 43.3116C55.3509 42.6307 54.6615 41.8422 54.0911 40.9691C54.5572 40.1439 54.9277 39.2678 55.1956 38.3579C55.8115 36.3803 55.8227 34.2624 55.2278 32.2783C54.9969 31.5788 54.652 30.9227 54.2071 30.3369C56.3644 28.2402 59.2334 27.5446 62.025 26.8975L62.0409 26.8937C65.2101 26.1379 68.2848 25.4047 70.3968 22.743C71.4851 21.2934 71.7717 18.6985 69.4308 18.2131C67.5375 17.8249 66.1819 20.1351 67.5375 21.3128C67.8431 21.553 68.1964 21.7243 68.5736 21.8153C68.9508 21.9063 69.3431 21.9148 69.7238 21.8402C67.882 24.1602 64.6879 24.9788 61.732 25.6809C61.1299 25.82 60.5278 25.9624 59.9289 26.1209C58.2048 25.4854 56.4584 23.7304 54.7534 22.0171L54.7383 22.002L54.2682 21.5685L55.012 20.8566C55.0776 20.7943 55.1429 20.7319 55.2087 20.6691C55.385 20.5007 55.5644 20.3295 55.7591 20.148C56.2335 20.4774 56.7433 20.752 57.2789 20.9666C58.921 21.5943 60.5664 21.3711 62.1989 19.4783L62.669 18.9314L62.0669 18.5367C60.6952 17.634 59.7421 17.0936 58.7246 17.0936C57.7683 17.0839 56.8764 17.5207 55.6914 18.5238C55.2696 18.1873 54.851 17.8119 54.4292 17.4204C54.4619 17.3908 54.4931 17.3595 54.5226 17.3266C56.4481 15.382 56.8474 13.6089 53.7981 10.561L53.3538 10.1177L52.9127 10.561C49.8666 13.6089 50.2562 15.3852 52.1882 17.3266L52.2783 17.4204C51.8597 17.8119 51.4379 18.2002 51.0226 18.5238C49.8344 17.5207 48.9522 17.0936 47.9862 17.0936C46.9687 17.1066 46.0156 17.634 44.6439 18.5367L44.0418 18.9314L44.5119 19.4783C46.1412 21.3711 47.7898 21.5943 49.4319 20.9666C49.9674 20.7539 50.4764 20.4792 50.9485 20.148C51.1108 20.2975 51.2557 20.4366 51.4006 20.5756C51.4972 20.6682 51.5938 20.7609 51.6955 20.8566C51.8198 20.9736 51.9426 21.0914 52.0641 21.208C52.1914 21.3301 52.3174 21.451 52.4425 21.5685C52.3915 21.6198 52.3393 21.6718 52.2867 21.7244C52.1801 21.8307 52.0716 21.939 51.966 22.0473C50.2562 23.7654 48.5046 25.5191 46.7755 26.1662C46.1766 26.0077 45.5712 25.8653 44.9723 25.7262C42.0164 25.0241 38.8223 24.2055 36.9805 21.8855C37.3613 21.9601 37.7535 21.9516 38.1307 21.8606C38.5079 21.7696 38.8613 21.5983 39.1668 21.3581C40.5224 20.1804 39.1475 17.8702 37.2735 18.2584C34.923 18.7308 35.2128 21.3258 36.3075 22.7883C38.4116 25.4481 41.4899 26.1822 44.6568 26.9374L44.6793 26.9428C47.471 27.6028 50.3399 28.2855 52.4973 30.3822C52.0524 30.968 51.7075 31.6241 51.4766 32.3236C50.8816 34.3077 50.8928 36.4256 51.5088 38.4032C51.7748 39.3132 52.1444 40.1894 52.61 41.0144C52.0417 41.8882 51.3534 42.6768 50.5653 43.3569C48.5786 45.0718 46.9558 45.6218 44.4668 45.6218H2.53383C2.42043 45.4036 2.24978 45.2207 2.04034 45.0929ZM70.0748 19.7662C70.1516 19.926 70.1753 20.1063 70.1424 20.2807C70.0008 21.0475 69.067 21.2158 68.423 20.8825C67.779 20.5492 67.7565 19.8245 68.3586 19.3877C68.9607 18.9509 69.7915 18.9509 70.0748 19.7662ZM56.7347 19.2518C57.5461 18.6014 58.1386 18.3167 58.7021 18.3167V18.3037C59.2623 18.3134 59.8838 18.6079 60.7274 19.1288C59.7035 20.038 58.7021 20.1157 57.7168 19.7371C57.3745 19.6078 57.0456 19.4452 56.7347 19.2518ZM45.9544 19.1418C46.7948 18.6208 47.4163 18.3167 47.9765 18.3167L47.9894 18.3037C48.5529 18.2973 49.1453 18.5917 49.9568 19.2388C49.6468 19.4374 49.3178 19.6043 48.9747 19.7371C47.9765 20.1286 46.988 20.0607 45.9544 19.1418ZM38.2556 20.8825C37.6535 21.1931 36.6778 21.0475 36.5362 20.2807C36.5033 20.1063 36.527 19.926 36.6038 19.7662C36.8871 18.9509 37.7597 18.9767 38.32 19.3877C38.8803 19.7986 38.8577 20.5719 38.2556 20.8825ZM53.6114 16.4044L53.3312 16.6115L53.0543 16.4044C51.8018 15.1393 51.4959 13.9422 53.2797 11.9426L53.3312 11.8973L53.386 11.9426C55.1698 13.9422 54.8671 15.1393 53.6114 16.4044ZM53.3473 20.6593H53.3184C53.035 20.4004 52.7388 20.1157 52.5391 19.9215C52.3395 19.7274 52.1399 19.5365 51.9435 19.3521C52.2236 19.1191 52.8354 18.6047 53.3312 18.1711C53.8303 18.6047 54.4421 19.1191 54.7222 19.3521C54.5258 19.5365 54.3745 19.6821 54.1266 19.9215C53.8786 20.161 53.6307 20.4004 53.3473 20.6593ZM58.1418 26.6516C56.3496 27.1987 54.7047 28.148 53.3312 29.4277L53.3441 29.4439C51.9702 28.1561 50.3214 27.201 48.5239 26.6516C49.9904 25.7508 51.3884 24.3491 52.7638 22.97L52.8322 22.9015L53.3312 22.4097C53.547 22.6168 53.7531 22.8206 53.8335 22.9015C53.9123 22.9798 53.9911 23.0582 54.0699 23.1365C55.4014 24.4611 56.7343 25.7871 58.1418 26.6516ZM54.2971 34.0016C54.2971 34.002 54.2972 34.0024 54.2972 34.0028V33.9996C54.2972 34.0003 54.2971 34.0009 54.2971 34.0016ZM54.001 32.7086C54.1402 33.1292 54.2394 33.5621 54.2971 34.0016C54.2906 34.0791 54.2799 34.1562 54.265 34.2326C54.2446 34.3342 54.2188 34.4346 54.1877 34.5335C54.0164 35.0207 53.7172 35.4522 53.3216 35.7824C52.834 35.3952 52.5005 34.8454 52.3814 34.2326C52.3661 34.1567 52.3554 34.08 52.3492 34.0028C52.406 33.5631 52.5041 33.1297 52.6422 32.7086C52.803 32.2163 53.0317 31.7491 53.3216 31.3205C53.6139 31.7476 53.8428 32.2152 54.001 32.7086ZM52.6873 38.0376C52.5481 37.5764 52.4406 37.1061 52.3653 36.6301H52.4071C52.5932 36.8005 52.7912 36.9573 52.9996 37.0993L53.3506 37.342L53.7048 37.0993C53.914 36.9573 54.112 36.7993 54.2972 36.6269C54.2223 37.104 54.1147 37.5754 53.9752 38.0376C53.8047 38.6072 53.5894 39.1622 53.3312 39.6975C53.0744 39.1616 52.8591 38.6067 52.6873 38.0376Z" fill="white"/>
<path d="M2.05685 61.5006C1.84349 61.3668 1.59717 61.2956 1.34568 61.295V61.3047C1.10507 61.304 0.868661 61.3681 0.661065 61.4903C0.453469 61.6125 0.282276 61.7885 0.16531 61.9997C0.0483448 62.211 -0.010117 62.45 -0.00398824 62.6917C0.00214055 62.9334 0.0726358 63.169 0.200158 63.374C0.32768 63.5791 0.507566 63.746 0.721088 63.8574C0.934609 63.9689 1.17396 64.0208 1.41422 64.0077C1.65447 63.9947 1.88685 63.9171 2.08716 63.7832C2.28747 63.6492 2.44838 63.4638 2.55314 63.2461H104.769C104.904 63.5202 105.126 63.7405 105.401 63.8713C105.675 64.0021 105.986 64.0356 106.282 63.9664C106.578 63.8972 106.842 63.7294 107.031 63.4902C107.22 63.251 107.323 62.9546 107.323 62.6491C107.323 62.3437 107.22 62.0473 107.031 61.8081C106.842 61.5689 106.578 61.401 106.282 61.3318C105.986 61.2626 105.675 61.2962 105.401 61.4269C105.126 61.5577 104.904 61.7781 104.769 62.0522H2.55314C2.44211 61.8254 2.27021 61.6344 2.05685 61.5006Z" fill="white"/>
<path fill-rule="evenodd" clip-rule="evenodd" d="M71.4143 33.1066C71.7653 33.0839 72.0873 33.0483 72.4093 33.003V33.0257C72.8147 32.9649 73.2166 32.8829 73.6135 32.7798C75.6324 32.2459 77.12 31.1846 77.8863 29.7674L78.3532 28.8485L77.3228 28.8259C72.6445 28.7159 71.8233 30.0423 70.7737 31.7377C70.1123 32.958 69.115 33.9613 67.9014 34.6273C67.4437 34.882 66.973 35.112 66.491 35.3165C66.071 35.4939 65.6409 35.6462 65.2031 35.7727C63.1617 36.3325 61.5968 36.0671 60.6308 35.3618C60.2913 35.1417 60.0013 34.8527 59.7795 34.5134C59.5577 34.174 59.409 33.7918 59.3428 33.3913C59.279 32.848 59.3788 32.298 59.6294 31.8123C59.9041 31.2704 60.3024 30.8014 60.7918 30.4437C61.2599 30.0963 61.7945 29.8499 62.3619 29.7202C62.9294 29.5905 63.5174 29.5801 64.089 29.6898C64.2049 29.7092 64.324 29.7351 64.4432 29.7674L64.6911 29.8322C64.5505 29.8613 64.4126 29.9025 64.279 29.9551C63.9694 30.0673 63.6881 30.2462 63.4547 30.4793C62.1345 31.8512 63.7348 33.9252 65.4349 33.469C67.9786 32.7798 67.5955 29.4892 65.1709 28.6609C65.0324 28.6188 64.8843 28.5767 64.7426 28.5412C64.601 28.5056 64.4625 28.4764 64.3208 28.4506C63.581 28.3085 62.8199 28.3213 62.0852 28.4883C61.3506 28.6554 60.6581 28.973 60.0512 29.4212C59.3996 29.8994 58.87 30.5259 58.5056 31.2493C58.1457 31.9586 58.0045 32.7595 58.0999 33.5498C58.1871 34.1217 58.3922 34.669 58.7022 35.1566C59.0121 35.6441 59.4201 36.0612 59.8999 36.381C61.1524 37.3064 63.0908 37.672 65.5412 36.9828C66.032 36.8448 66.5138 36.6763 66.9837 36.4781C67.5079 36.2564 68.0196 36.0058 68.5164 35.7274C69.686 35.1121 70.6826 34.2108 71.4143 33.1066ZM73.3012 31.5373C72.9856 31.6182 72.6507 31.6894 72.2901 31.7444C72.9148 30.8675 73.752 30.214 76.0574 30.091C75.2768 30.8019 74.3278 31.2999 73.3012 31.5373ZM64.4964 32.3024C64.319 32.1639 64.1972 31.9658 64.1534 31.7444H64.1373C63.986 30.6216 65.6732 30.5052 65.8857 31.437C65.9044 31.5791 65.8916 31.7235 65.8482 31.86C65.8048 31.9965 65.7318 32.1217 65.6345 32.2265C65.4882 32.359 65.311 32.4525 65.1194 32.4983C64.895 32.5104 64.6739 32.4408 64.4964 32.3024Z" fill="white"/>
<path fill-rule="evenodd" clip-rule="evenodd" d="M71.6107 33.7699C75.1075 33.7699 76.5372 34.8247 77.1715 37.7949C74.2349 37.4714 72.1323 37.1478 71.6107 33.7699ZM75.5712 36.5298C74.6664 36.2742 73.6071 35.75 73.1692 34.8635C73.6651 34.9518 74.1363 35.1463 74.5507 35.4338C74.9652 35.7214 75.3133 36.0952 75.5712 36.5298Z" fill="white"/>
<path fill-rule="evenodd" clip-rule="evenodd" d="M64.514 20.0607C64.7974 23.1992 64.192 24.3608 61.0365 24.9141C60.8208 22.002 61.6129 20.7919 64.514 20.0607ZM63.23 22.8055C62.9468 23.2092 62.5337 23.5025 62.0604 23.636C62.1248 22.5035 62.566 21.8241 63.6157 21.4196C63.6495 21.9124 63.5133 22.4019 63.23 22.8055Z" fill="white"/>
<path fill-rule="evenodd" clip-rule="evenodd" d="M69.6691 29.7157C69.1732 26.4412 70.1489 24.3511 73.4847 22.9209C74.2993 27.5608 71.4916 28.9585 69.6691 29.7157ZM70.5417 28.0979C72.0132 27.1272 72.596 26.4121 72.6218 24.4902C71.4336 25.4609 70.6673 26.5189 70.5417 28.0979Z" fill="white"/>
<path fill-rule="evenodd" clip-rule="evenodd" d="M58.2416 15.2202C61.0655 12.347 62.5112 12.457 66.8098 13.4601C64.8779 16.3494 61.8061 16.1359 58.2416 15.2202ZM64.968 13.9486C63.5126 15.0487 62.0025 14.9096 60.4344 14.7478C61.5851 13.6363 63.285 13.7933 64.9184 13.9441L64.968 13.9486Z" fill="white"/>
<path fill-rule="evenodd" clip-rule="evenodd" d="M63.6382 5.89201C59.3525 6.51325 56.9343 9.45116 57.2177 13.3339V13.3436C60.8562 12.5638 63.5996 10.2568 63.6382 5.89201ZM62.1892 7.51951C61.7771 9.66795 60.5664 10.891 58.5572 11.6093V11.6061C58.6887 10.7439 59.0431 9.93157 59.585 9.25021C60.1268 8.56884 60.8372 8.04235 61.6451 7.72336C61.8189 7.64894 61.9993 7.58099 62.1892 7.51951Z" fill="white"/>
<path fill-rule="evenodd" clip-rule="evenodd" d="M43.0694 5.89201C43.1112 10.2471 45.8449 12.5541 49.4899 13.3339V13.35C49.7732 9.45116 47.3551 6.53913 43.0694 5.89201ZM47.1226 9.25344C47.6645 9.9348 48.0189 10.7472 48.1504 11.6093V11.6125C46.1412 10.8942 44.9176 9.67765 44.5151 7.52275C44.7083 7.58423 44.8886 7.65217 45.0625 7.72659C45.8703 8.04559 46.5807 8.57208 47.1226 9.25344Z" fill="white"/>
<path fill-rule="evenodd" clip-rule="evenodd" d="M48.466 15.2202C44.9015 16.1359 41.8104 16.3494 39.8978 13.4601C44.1963 12.457 45.6421 12.347 48.466 15.2202ZM41.7541 13.9473C43.3856 13.7956 45.1143 13.6349 46.2732 14.7478C44.7051 14.9193 43.1949 15.0487 41.7395 13.9486L41.7541 13.9473Z" fill="white"/>
<path fill-rule="evenodd" clip-rule="evenodd" d="M37.0385 29.7157C35.2192 28.9585 32.4082 27.5608 33.2229 22.9209C36.5587 24.3511 37.5343 26.4412 37.0385 29.7157ZM36.1659 28.0979C36.0403 26.5189 35.2739 25.477 34.0858 24.4902C34.1148 26.4121 34.6944 27.1401 36.1659 28.0979Z" fill="white"/>
<path fill-rule="evenodd" clip-rule="evenodd" d="M42.1807 20.0607C45.0786 20.7822 45.8707 21.9826 45.655 24.9141C42.5027 24.3737 41.8973 23.2121 42.1807 20.0607ZM43.0951 21.4196C44.1416 21.8241 44.5795 22.5035 44.6471 23.636C44.1741 23.5024 43.7615 23.209 43.4787 22.8053C43.196 22.4015 43.0605 21.9121 43.0951 21.4196Z" fill="white"/>
<path fill-rule="evenodd" clip-rule="evenodd" d="M35.0775 33.7634C34.5559 37.1575 32.4533 37.4681 29.5167 37.7885C30.1607 34.8182 31.5807 33.7666 35.0775 33.7634ZM32.1364 35.4285C32.5503 35.141 33.0207 34.9462 33.5159 34.857C33.0812 35.7436 32.0218 36.2677 31.117 36.5234C31.375 36.0893 31.7226 35.716 32.1364 35.4285Z" fill="white"/>
<path fill-rule="evenodd" clip-rule="evenodd" d="M33.0715 32.7507C33.4674 32.8534 33.8683 32.9355 34.2726 32.9966L34.2532 33.016C34.572 33.0613 34.9037 33.0969 35.2514 33.1195C35.984 34.223 36.9804 35.1241 38.1493 35.7403C38.6461 36.0187 39.1578 36.2693 39.682 36.491C40.1519 36.6892 40.6337 36.8578 41.1245 36.9958C43.5749 37.6882 45.5133 37.3031 46.7626 36.3939C47.2433 36.0747 47.652 35.6579 47.9626 35.1703C48.2732 34.6827 48.4786 34.1351 48.5658 33.5628C48.6612 32.7725 48.52 31.9715 48.1601 31.2623C47.7957 30.5388 47.2661 29.9124 46.6145 29.4342C46.0076 28.9859 45.3151 28.6683 44.5805 28.5013C43.8458 28.3343 43.0847 28.3214 42.3449 28.4635C42.2064 28.4894 42.0712 28.5185 41.9231 28.5541C41.775 28.5897 41.6333 28.6318 41.4948 28.6738C39.0702 29.5021 38.6871 32.7927 41.2308 33.4819C42.9309 33.9381 44.5312 31.8479 43.211 30.4922C42.9776 30.2591 42.6963 30.0802 42.3867 29.968C42.2531 29.9154 42.1152 29.8743 41.9746 29.8451L42.2225 29.7804C42.3417 29.748 42.4608 29.7221 42.5767 29.7027C43.1488 29.593 43.7374 29.6033 44.3053 29.733C44.8733 29.8628 45.4084 30.1091 45.8771 30.4566C46.3666 30.8144 46.7649 31.2833 47.0395 31.8253C47.2884 32.3115 47.3881 32.861 47.3261 33.4042C47.26 33.8048 47.1112 34.187 46.8894 34.5263C46.6676 34.8657 46.3776 35.1546 46.0381 35.3747C45.0689 36.0801 43.5073 36.3583 41.4658 35.7856C41.028 35.6591 40.5979 35.5068 40.1779 35.3294C39.696 35.125 39.2252 34.8949 38.7676 34.6402C37.5539 33.9743 36.5568 32.9712 35.8954 31.7509L35.8921 31.7456C34.844 30.0623 34.0197 28.7386 29.3461 28.8388L28.3157 28.8615L28.8084 29.7674C29.5715 31.1717 31.0526 32.233 33.0715 32.7507ZM40.7832 31.4305C40.9925 30.4987 42.6798 30.6152 42.5316 31.7379H42.5188C42.4749 31.9593 42.3531 32.1574 42.1757 32.2959C41.9983 32.4344 41.7771 32.5039 41.5528 32.4918C41.3599 32.4468 41.1815 32.3533 41.0344 32.22C40.9371 32.1152 40.8642 31.9901 40.8207 31.8536C40.7773 31.7171 40.7645 31.5726 40.7832 31.4305ZM30.6276 30.0845C32.9331 30.2075 33.7702 30.8611 34.3949 31.7379C34.0278 31.6829 33.7058 31.6117 33.3839 31.5308C32.3572 31.2934 31.4082 30.7954 30.6276 30.0845Z" fill="white"/>
<path fill-rule="evenodd" clip-rule="evenodd" d="M52.9674 9.23761L53.3441 9.70677L53.7241 9.22467C54.6933 8.01456 55.3984 6.79798 55.5337 5.40667C55.6689 4.01537 55.2246 2.49788 53.8915 0.728008L53.3699 0.0323559L53.3441 0L53.3216 0.0323559L52.8 0.74095C51.4798 2.50758 51.0226 4.02831 51.1578 5.41962C51.293 6.81092 52.0014 8.0275 52.9674 9.23761ZM52.4651 5.29343C52.3781 4.38423 52.6229 3.38443 53.3441 2.21638C54.0686 3.38443 54.3133 4.38423 54.2264 5.29343C54.1234 6.11014 53.8202 6.88839 53.3441 7.55834C52.8716 6.88674 52.5698 6.10915 52.4651 5.29343Z" fill="white"/>
<path fill-rule="evenodd" clip-rule="evenodd" d="M0.991484 50.032V49.4172L5.27075 49.4269C6.52974 49.4269 7.42166 49.6113 8.10106 50.0934C8.4745 50.3644 8.77487 50.7246 8.975 51.1416C9.17514 51.5585 9.26874 52.0189 9.24735 52.4813C9.24735 54.6783 7.63739 55.7234 5.95016 55.924C5.71835 55.9521 5.48488 55.964 5.25143 55.9596L4.10836 55.6522V58.0077C4.10836 59.3925 4.26936 59.4799 5.71832 59.5867V60.182H0.888447V59.5964C2.13777 59.4896 2.30199 59.3666 2.30199 58.0174V51.6271C2.30199 50.2067 2.13777 50.1193 0.991484 50.032ZM4.12726 50.5381C4.09615 50.6469 4.08861 50.7612 4.10514 50.8732V54.9759C4.43825 55.0987 4.79038 55.1611 5.14518 55.1604C5.93728 55.1604 7.22524 54.6491 7.22524 52.5525C7.22524 50.7308 6.11437 50.0837 5.0035 50.0837C4.75309 50.051 4.49916 50.1071 4.28546 50.2423C4.2123 50.3284 4.15836 50.4293 4.12726 50.5381Z" fill="white"/>
<path fill-rule="evenodd" clip-rule="evenodd" d="M17.4131 58.9363L17.5902 59.4863L17.5998 59.4831L15.9577 60.3923C15.6338 60.3923 15.3203 60.2778 15.0722 60.0688C14.8855 59.8778 14.7407 59.6496 14.6472 59.399C14.5561 59.4595 14.4626 59.5228 14.368 59.5867C13.7905 59.9774 13.1724 60.3955 12.8182 60.3955C12.5397 60.3985 12.2634 60.3463 12.005 60.2419C11.7466 60.1374 11.5112 59.9828 11.3123 59.7869C11.1134 59.5909 10.955 59.3575 10.8459 59.1C10.7369 58.8424 10.6795 58.5658 10.677 58.2859C10.677 57.4253 11.0924 56.9529 11.965 56.6067C12.9181 56.2928 14.2028 55.8366 14.5795 55.4904V55.1409C14.5795 54.0926 14.1352 53.4455 13.4171 53.4455C13.2938 53.445 13.1718 53.4724 13.0604 53.5256C12.9489 53.5788 12.8508 53.6565 12.7732 53.7529C12.549 54.0918 12.3916 54.4707 12.3095 54.8692C12.2851 55.0117 12.2092 55.1401 12.0962 55.2297C11.9833 55.3193 11.8413 55.3638 11.6977 55.3545C11.3242 55.3545 10.7897 54.9921 10.7897 54.5456C10.7897 54.2706 10.9829 54.0797 11.3403 53.8079C12.1336 53.2579 13.0194 52.8568 13.9549 52.6237C14.5114 52.5979 15.0584 52.7761 15.494 53.1252C16.138 53.6493 16.3054 54.3256 16.3054 55.196V58.0821C16.3054 58.8554 16.5662 59.0916 16.8206 59.0916C17.0262 59.0784 17.2273 59.0257 17.4131 58.9363ZM13.5975 59.1822C13.9624 59.1571 14.3088 59.0115 14.5828 58.768L14.6021 56.1957C14.2447 56.364 13.7263 56.6261 13.3849 56.8105C12.8279 57.0823 12.5284 57.3897 12.5284 57.9624C12.5157 58.1137 12.5336 58.266 12.5809 58.4102C12.6283 58.5544 12.7042 58.6874 12.8041 58.8014C12.9039 58.9153 13.0257 59.0078 13.162 59.0733C13.2984 59.1387 13.4465 59.1758 13.5975 59.1822Z" fill="white"/>
<path d="M21.2512 52.601V54.3579L21.2963 54.3644C21.8694 53.4002 22.5263 52.6269 23.2057 52.6269C23.4713 52.6198 23.7291 52.7174 23.924 52.8988C24.119 53.0801 24.2356 53.3309 24.2489 53.5976C24.2491 53.8239 24.1829 54.0452 24.0587 54.234C23.9344 54.4227 23.7576 54.5705 23.5502 54.6588C23.4758 54.7016 23.3892 54.7179 23.3044 54.705C23.2197 54.6921 23.1418 54.6507 23.0833 54.5877C22.9886 54.4881 22.8753 54.4083 22.7499 54.3528C22.6245 54.2973 22.4894 54.2672 22.3524 54.2641C21.9757 54.2641 21.5796 54.5715 21.2576 55.3804V58.3992C21.2576 59.4249 21.3349 59.5122 22.6229 59.6287V60.182H18.4048V59.6384C19.374 59.5219 19.4963 59.4346 19.4963 58.4251V54.9209C19.4963 53.9664 19.3933 53.8952 18.5529 53.7561V53.2481C19.4742 53.1376 20.3796 52.9205 21.2512 52.601Z" fill="white"/>
<path d="M33.2937 59.6287V60.182L33.3001 60.2079L30.6888 60.2273C30.2484 59.6909 29.6821 58.8798 29.1033 58.0508C28.8442 57.6796 28.5825 57.3049 28.3286 56.9496C28.145 56.7037 28.0227 56.6034 27.9003 56.6034C27.8333 56.592 27.7643 56.5987 27.7007 56.6228V58.3798C27.7007 59.4249 27.8295 59.4961 28.8277 59.6287V60.182H24.8189V59.6352C25.8492 59.5025 25.9652 59.4152 25.9652 58.3862V50.7826C25.9652 49.8087 25.8686 49.7181 24.9412 49.6307V49.1033C25.8707 48.9762 26.7904 48.786 27.6943 48.5339V56.1019C28.0864 56.0248 28.4369 55.8061 28.6796 55.4872C29.0565 55.0525 29.3938 54.5847 29.6874 54.0894C29.9128 53.6979 29.8774 53.5134 29.2141 53.4423V52.8825L32.6916 52.7401V53.2611C31.6354 53.4358 31.1267 53.6396 30.6276 54.1573C30.182 54.6166 29.7648 55.1029 29.3783 55.6133C29.7711 56.2022 31.3134 58.2051 31.7932 58.7583C32.3277 59.3375 32.6755 59.5316 33.2937 59.6287Z" fill="white"/>
<path fill-rule="evenodd" clip-rule="evenodd" d="M46.1412 59.0301C46.4313 59.37 46.8073 59.6248 47.2295 59.7678L47.2359 59.7646L47.1458 60.3211C47.0728 60.3211 46.9891 60.3175 46.9007 60.3137C46.8018 60.3095 46.6972 60.305 46.5952 60.305C44.9079 60.2338 44.264 59.8002 43.591 58.7389C43.1955 58.1709 42.7981 57.4404 42.4222 56.7495C42.3206 56.5629 42.2207 56.3791 42.1227 56.2022C42.0188 55.9829 41.8485 55.8023 41.6363 55.6861C41.4241 55.5698 41.1807 55.524 40.941 55.5551H40.487V57.9883C40.487 59.3569 40.6351 59.4637 41.8877 59.5672V60.182H37.2349V59.5672C38.5035 59.4637 38.6871 59.3569 38.6871 57.9883V51.5689C38.6871 50.2164 38.5228 50.1096 37.3057 50.0222V49.4075H41.6848C42.9889 49.4075 43.7938 49.5563 44.4378 49.9834C44.7998 50.2203 45.0943 50.5476 45.2924 50.9333C45.4906 51.3191 45.5855 51.7499 45.568 52.1836C45.568 53.6396 44.6761 54.4615 43.5073 54.963C43.7777 55.4483 44.4024 56.5646 44.9015 57.3185C45.2543 57.9308 45.6698 58.5045 46.1412 59.0301ZM40.4677 50.9444V54.8595L41.0956 54.8692C41.668 54.9175 42.2388 54.7592 42.7055 54.4226C42.9994 54.1876 43.2318 53.8842 43.3827 53.5386C43.5336 53.193 43.5985 52.8157 43.5717 52.4392C43.5717 50.7308 42.4608 50.0837 41.4014 50.0837C40.9764 50.0837 40.7671 50.1808 40.6351 50.2681C40.5031 50.3555 40.4677 50.5302 40.4677 50.9444Z" fill="white"/>
<path d="M53.8485 58.248C53.851 58.2456 53.8536 58.2431 53.8561 58.2406H53.8432L53.8485 58.248Z" fill="white"/>
<path fill-rule="evenodd" clip-rule="evenodd" d="M52.0143 58.9945C52.6986 58.992 53.3555 58.7246 53.8485 58.248L54.1652 58.6872C53.1606 60.0623 51.9596 60.3858 51.3156 60.3858C49.2098 60.3858 47.9862 58.7422 47.9862 56.8008C47.9814 55.6833 48.4072 54.6073 49.1743 53.7982C49.8022 53.0957 50.6803 52.6702 51.6182 52.614H51.6376C52.3306 52.6275 52.9906 52.9137 53.4759 53.411C53.9612 53.9083 54.233 54.5771 54.2328 55.2736C54.2328 55.6328 54.1652 55.8398 53.8046 55.8884C53.518 55.9401 51.4798 56.0954 49.7249 56.1666C49.7604 58.0724 50.8551 58.9945 52.0143 58.9945ZM52.4844 54.963C52.5037 54.1217 52.0336 53.3128 51.2995 53.3128C50.6008 53.3128 49.9793 54.0894 49.7958 55.3577C50.5814 55.3577 51.3156 55.3416 52.127 55.3092C52.391 55.3092 52.4844 55.2348 52.4844 54.963Z" fill="white"/>
<path d="M60.3585 54.7597C60.3591 54.7649 60.3597 54.7701 60.3603 54.7753V54.7592L60.3585 54.7597Z" fill="white"/>
<path d="M59.9675 52.9213C60.1535 53.5208 60.2844 54.1362 60.3585 54.7597L59.8162 54.9145C59.4104 53.8532 58.892 53.2481 58.1225 53.2481C57.8668 53.2566 57.6249 53.3666 57.4499 53.554C57.2748 53.7414 57.1809 53.991 57.1887 54.2479C57.1887 54.8465 57.6749 55.2057 58.4992 55.581C59.784 56.1149 60.6823 56.7296 60.6823 57.9689C60.6823 59.5672 59.1818 60.3697 57.8166 60.3697C57.093 60.3772 56.3828 60.1738 55.7719 59.784C55.6161 59.0879 55.5288 58.378 55.5111 57.6647L56.0778 57.6097C56.3837 58.671 57.1179 59.6967 58.1064 59.6967C58.2386 59.7029 58.3707 59.6818 58.4945 59.6345C58.6183 59.5873 58.731 59.5151 58.8259 59.4222C58.9207 59.3294 58.9955 59.2179 59.0456 59.0948C59.0958 58.9717 59.1202 58.8396 59.1174 58.7066C59.1174 58.0918 58.7278 57.6971 57.852 57.2667L57.8138 57.248C56.9406 56.8192 55.7365 56.228 55.7365 54.895C55.7365 53.6429 56.7605 52.5978 58.4284 52.5978C58.9595 52.5837 59.4865 52.6945 59.9675 52.9213Z" fill="white"/>
<path d="M64.1786 51.4016C64.0509 51.4535 63.9144 51.4795 63.7767 51.4783C63.6328 51.4851 63.4891 51.4623 63.3543 51.4114C63.2196 51.3606 63.0965 51.2826 62.9927 51.1823C62.8889 51.0821 62.8065 50.9616 62.7506 50.8282C62.6947 50.6949 62.6665 50.5515 62.6676 50.4068C62.6687 50.2621 62.6991 50.1192 62.757 49.9867C62.8149 49.8543 62.8991 49.7351 63.0044 49.6364C63.1097 49.5377 63.2339 49.4616 63.3695 49.4128C63.505 49.364 63.649 49.3435 63.7928 49.3525C63.9326 49.3515 64.0712 49.379 64.2002 49.4334C64.3292 49.4879 64.4458 49.568 64.543 49.6691C64.6403 49.7701 64.7161 49.8899 64.7659 50.0212C64.8157 50.1526 64.8385 50.2927 64.8328 50.4332C64.8319 50.5715 64.8039 50.7084 64.7504 50.8358C64.6968 50.9633 64.6187 51.0789 64.5206 51.176C64.4225 51.2731 64.3063 51.3498 64.1786 51.4016Z" fill="white"/>
<path d="M65.8889 59.6287V60.182H61.9188V59.6384C62.8912 59.5058 63.0135 59.4346 63.0135 58.3021V54.9953C63.0135 53.9308 62.9363 53.8952 62.0476 53.7561V53.2287C62.9779 53.1163 63.894 52.907 64.7813 52.6042V58.2924C64.7813 59.4087 64.8682 59.4961 65.8889 59.6287Z" fill="white"/>
<path fill-rule="evenodd" clip-rule="evenodd" d="M74.6471 59.1531L75.0947 59.1725L75.1075 59.1563V59.7323C74.1183 59.886 73.1397 60.1021 72.1774 60.3794V59.3828L71.1567 60.0299C70.8595 60.2377 70.5129 60.3627 70.1521 60.3923C68.7933 60.3923 66.9322 59.179 66.9322 56.7555C66.9322 54.4712 68.9253 52.6204 71.3177 52.6204C71.6036 52.6386 71.8872 52.6841 72.1645 52.7563V50.7664C72.1645 49.8087 72.0679 49.7537 70.9957 49.6501V49.1066C71.987 48.9935 72.9678 48.802 73.9291 48.5339V58.1339C73.9291 58.9945 74.0031 59.0851 74.6471 59.1531ZM70.9603 59.1725C71.3939 59.1585 71.8133 59.0142 72.1645 58.7583V54.1929C72.0287 53.9446 71.8294 53.7372 71.5871 53.5921C71.3448 53.4471 71.0684 53.3697 70.7864 53.3678C70.2422 53.3678 68.9253 53.8499 68.9253 56.2993C68.9253 58.2924 70.1038 59.1725 70.9603 59.1725Z" fill="white"/>
<path fill-rule="evenodd" clip-rule="evenodd" d="M80.0952 58.9945C80.783 58.992 81.4432 58.7218 81.937 58.2406L82.2429 58.6872C81.2383 60.0623 80.0405 60.3858 79.3965 60.3858C77.2906 60.3858 76.0671 58.7422 76.0671 56.8008C76.0628 55.684 76.4872 54.6085 77.252 53.7982C77.8806 53.0949 78.76 52.6694 79.6992 52.614H79.7185C80.4109 52.6292 81.07 52.9159 81.555 53.4128C82.0399 53.9098 82.3122 54.5776 82.3137 55.2736C82.3137 55.6328 82.2429 55.8398 81.8823 55.8884C81.5957 55.9401 79.5607 56.0954 77.8058 56.1666C77.8413 58.0724 78.9328 58.9945 80.0952 58.9945ZM80.5653 54.963C80.5814 54.1217 80.1113 53.3128 79.3772 53.3128C78.6784 53.3128 78.0602 54.0894 77.8735 55.3577C78.6623 55.3577 79.3965 55.3416 80.2079 55.3092C80.4687 55.3092 80.5653 55.2348 80.5653 54.963Z" fill="white"/>
<path d="M91.8028 59.6287V60.182H88.1514V59.6481C88.9564 59.5058 89.0434 59.4346 89.0434 58.3539V55.5195C89.0434 54.345 88.5797 53.8241 87.7747 53.8241C87.222 53.8664 86.7019 54.1036 86.3064 54.4938V58.4154C86.3064 59.4443 86.3773 59.5122 87.1983 59.6287V60.182H83.4246V59.6352C84.4646 59.4831 84.5483 59.4313 84.5483 58.3862V54.9533C84.5483 53.9438 84.4646 53.892 83.6242 53.7529V53.2255C84.5386 53.1057 85.4377 52.8888 86.3064 52.5784V53.8338C86.6155 53.5976 86.9536 53.3517 87.3497 53.0961C87.7273 52.8002 88.1881 52.6315 88.6666 52.614C90.0125 52.614 90.8014 53.5846 90.8014 55.2024V58.4154C90.8014 59.4443 90.9044 59.4961 91.8028 59.6287Z" fill="white"/>
<path d="M98.0298 58.8201C98.3467 58.6871 98.6329 58.4898 98.8705 58.2406L99.2247 58.6969C98.4713 59.7064 97.3829 60.4279 96.4169 60.4279C94.2435 60.4279 92.9555 58.7033 92.9555 56.8688C92.9649 56.2361 93.1208 55.6143 93.4108 55.0526C93.7009 54.491 94.1172 54.005 94.6267 53.6332C95.3872 53.046 96.3036 52.6981 97.2606 52.6334C97.7703 52.6153 98.2728 52.7591 98.6967 53.0443C98.7923 53.1079 98.8692 53.196 98.9196 53.2996C98.97 53.4031 98.992 53.5183 98.9832 53.6332C98.9832 54.0894 98.5775 54.5035 98.3392 54.5035C98.2734 54.4962 98.2096 54.4759 98.1515 54.4437C98.0935 54.4115 98.0424 54.368 98.0011 54.3159C97.3861 53.7658 96.8742 53.5296 96.3751 53.5296C95.5089 53.5296 94.7233 54.3709 94.7233 56.0631C94.7233 58.2957 96.2238 59.014 97.0287 59.014C97.3721 59.0192 97.7129 58.9532 98.0298 58.8201Z" fill="white"/>
<path fill-rule="evenodd" clip-rule="evenodd" d="M104.212 59.014C104.901 59.0119 105.563 58.7417 106.057 58.2601L106.363 58.7066C105.359 60.0817 104.161 60.4053 103.517 60.4053C101.411 60.4053 100.187 58.7616 100.187 56.8202C100.183 55.7027 100.608 54.6267 101.376 53.8176C102.003 53.1145 102.881 52.6889 103.82 52.6334H103.839C104.532 52.6477 105.191 52.9342 105.676 53.4313C106.161 53.9285 106.433 54.5968 106.434 55.293C106.434 55.6522 106.363 55.8592 106.003 55.9078C105.719 55.9596 103.681 56.1149 101.926 56.186C101.958 58.0918 103.053 59.014 104.212 59.014ZM104.686 54.9824C104.702 54.1411 104.232 53.3323 103.498 53.3323C102.802 53.3323 102.181 54.1088 101.994 55.3771C102.783 55.3771 103.517 55.361 104.328 55.3286C104.589 55.3286 104.686 55.2542 104.686 54.9824Z" fill="white"/>
</g>
<defs>
<clipPath id="clip0">
<rect width="107.323" height="64" fill="white"/>
</clipPath>
</defs>
</svg>
