<svg width="0" height="0" class="hidden">
  <symbol viewBox="0 0 24 24" fill="none" id="ic_telegram">
    <path d="M3.318 11.515l4.147 1.548 1.606 5.162a.488.488 0 0 0 .775.234l2.312-1.885a.69.69 0 0 1 .841-.023l4.17 3.027a.489.489 0 0 0 .766-.295l3.054-14.694a.489.489 0 0 0-.654-.555L3.313 10.6a.49.49 0 0 0 .005.915zm5.494.724l8.106-4.993c.146-.09.296.108.17.224l-6.69 6.218a1.387 1.387 0 0 0-.429.83l-.228 1.689c-.03.225-.347.247-.409.03l-.876-3.08a.816.816 0 0 1 .356-.918z"
      fill="#fff"></path>
  </symbol>
  <symbol viewBox="0 0 24 24" fill="none" id="ic_viber">
    <path fill-rule="evenodd" clip-rule="evenodd" d="M20.025 14.477l-.005.02c-.42 1.699-2.314 3.521-4.053 3.9l-.02.005a22.595 22.595 0 0 1-5.49.366l-1.92 1.996a.762.762 0 0 1-1.313-.528V18.34c-1.674-.478-3.427-2.217-3.83-3.843l-.004-.02a16.596 16.596 0 0 1 0-7.15l.004-.02c.42-1.699 2.315-3.521 4.054-3.9l.02-.004a22.526 22.526 0 0 1 8.479 0l.02.004c1.739.379 3.633 2.201 4.053 3.9l.005.02a16.58 16.58 0 0 1 0 7.15zM7.77 4.93a20.98 20.98 0 0 1 7.874 0c1.143.255 2.58 1.632 2.861 2.74a15.043 15.043 0 0 1 0 6.462c-.28 1.108-1.718 2.485-2.861 2.74a21.003 21.003 0 0 1-4.51.364.11.11 0 0 0-.08.033l-1.402 1.44-1.492 1.53a.175.175 0 0 1-.3-.12v-3.141a.108.108 0 0 0-.089-.106c-1.143-.255-2.58-1.632-2.862-2.74a15.06 15.06 0 0 1 0-6.462C5.19 6.562 6.628 5.185 7.77 4.93zm6.873 10.508c.48-.257.812-.661 1.04-1.146.126-.265.05-.521-.172-.717-.215-.189-.446-.353-.678-.518l-.052-.037c-.254-.181-.51-.361-.775-.528-.264-.167-.577-.165-.823.036-.088.072-.16.168-.232.264-.13.175-.261.349-.493.376-.194.022-.366-.05-.536-.122a5.284 5.284 0 0 0-.05-.02c-1.16-.483-1.866-1.38-2.285-2.532a.512.512 0 0 1 .034-.45.77.77 0 0 1 .177-.186l.045-.038c.062-.051.124-.103.19-.148.34-.23.392-.646.204-.985a9.105 9.105 0 0 0-1.092-1.529c-.19-.22-.446-.292-.706-.167-.333.16-.64.377-.88.66-.254.302-.496.717-.331 1.118l.054.134.001.002c.161.395.323.79.51 1.172.443.898.965 1.747 1.633 2.498 1.175 1.322 2.658 2.184 4.268 2.853a2.8 2.8 0 0 0 .332.106l.167.047.146-.04c.106-.026.211-.053.304-.103zm-1.062-4.903a.316.316 0 0 0 .023.002l.012-.002a.21.21 0 0 0 .176-.17.643.643 0 0 0 .003-.199v-.006c-.084-.962-.668-1.384-1.485-1.443a.253.253 0 0 0-.267.203c-.022.132.055.245.195.28.06.014.123.02.184.025.07.007.14.013.21.033a.91.91 0 0 1 .284.137.948.948 0 0 1 .35.549c.022.094.033.192.043.29l.004.03.002.016c.017.155.105.25.266.255zm-1.282-2.443c.275.046.546.122.796.245.415.203.769.538 1 .937.225.389.322.834.323 1.28 0 .069.003.141.025.204.074.214.395.187.45-.024.012-.044.016-.09.019-.12l.002-.027a49.929 49.929 0 0 1-.022-.363.829.829 0 0 0-.012-.086 1.27 1.27 0 0 1-.008-.047c-.146-.976-.645-1.706-1.52-2.17a3.312 3.312 0 0 0-1.38-.36c-.147-.007-.246.09-.253.225-.006.144.072.237.218.257.045.007.09.012.137.018.075.01.15.019.225.031zm3.242 2.97c.011.151.087.293.256.29.164-.001.25-.145.238-.297l-.01-.133a9.485 9.485 0 0 0-.104-.945c-.37-2.073-2.085-3.468-4.178-3.54a56.357 56.357 0 0 0-.06-.001h-.093c-.15.008-.282.133-.254.29.031.177.209.195.355.21l.026.002c.074.008.148.014.223.02.164.015.329.03.49.058 1.563.279 2.815 1.578 3.033 3.147.033.237.05.477.066.716l.012.183zm-3.824-4.626z"
      fill="#fff"></path>
  </symbol>
  <symbol viewBox="0 0 24 24" fill="none" id="ic_phone">
    <path d="M20 15.5c-1.25 0-2.45-.2-3.57-.57a1.02 1.02 0 0 0-1.02.24l-2.2 2.2a15.074 15.074 0 0 1-6.59-6.58l2.2-2.21c.28-.27.36-.66.25-1.01A11.36 11.36 0 0 1 8.5 4c0-.55-.45-1-1-1H4c-.55 0-1 .45-1 1 0 9.39 7.61 17 17 17 .55 0 1-.45 1-1v-3.5c0-.55-.45-1-1-1zM12 3v10l3-3h6V3h-9z"
      fill="#fff"></path>
  </symbol>
  <symbol viewBox="0 0 20 19" fill="none" id="ic_heart">
    <path d="M10 18.35l-1.45-1.32C3.4 12.36 0 9.28 0 5.5 0 2.42 2.42 0 5.5 0 7.24 0 8.91.81 10 2.09 11.09.81 12.76 0 14.5 0 17.58 0 20 2.42 20 5.5c0 3.78-3.4 6.86-8.55 11.54L10 18.35z" fill="#fff"></path>
  </symbol>
  <symbol viewBox="0 0 24 24" fill="none" id="ic_messenger">
    <path d="M12 3c-4.97 0-9 3.73-9 8.333 0 2.622 1.308 4.961 3.354 6.489V21l3.064-1.682a9.676 9.676 0 0 0 2.582.349c4.97 0 9-3.73 9-8.333C21 6.732 16.97 3 12 3zm.894 11.222l-2.291-2.445-4.472 2.445L11.05 9l2.347 2.444L17.814 9l-4.92 5.222z" fill="#fff"></path>
  </symbol>
  <symbol viewBox="0 0 108 64" fill="none" id="ic_logo">
    <g clip-path="url(#clip0)" fill="#fff">
      <path fill-rule="evenodd" clip-rule="evenodd" d="M2.04 45.093a1.337 1.337 0 0 0-.694-.196v-.026a1.341 1.341 0 0 0-1.174.686 1.358 1.358 0 0 0 .526 1.853 1.34 1.34 0 0 0 1.836-.555H44.44c2.77 0 4.762-.706 6.939-2.589a12.388 12.388 0 0 0 1.964-2.148 12.544 12.544 0 0 0 3.79 3.459h-.039l.155.068a7.733 7.733 0 0 0 4.102 1.197h43.45a1.347 1.347 0 0 0 1.514.68 1.352 1.352 0 0 0 .735-2.146 1.345 1.345 0 0 0-1.609-.402c-.274.124-.5.336-.64.603H61.236c-1.919 0-3.667-1.033-5.097-2.265a11.167 11.167 0 0 1-2.048-2.343c.466-.825.837-1.701 1.105-2.611.616-1.978.627-4.096.032-6.08a6.663 6.663 0 0 0-1.02-1.941c2.156-2.097 5.025-2.792 7.817-3.44l.016-.003c3.17-.756 6.244-1.49 8.356-4.151 1.088-1.45 1.375-4.044-.966-4.53-1.894-.388-3.25 1.922-1.894 3.1a2.702 2.702 0 0 0 2.187.527c-1.842 2.32-5.036 3.139-7.992 3.84-.602.14-1.204.282-1.803.44-1.724-.635-3.47-2.39-5.176-4.103l-.015-.015-.47-.433.744-.712.197-.188c.176-.168.355-.34.55-.521.474.33.984.604 1.52.819 1.642.627 3.287.404 4.92-1.489l.47-.547-.602-.394c-1.372-.903-2.325-1.443-3.342-1.443-.957-.01-1.849.427-3.034 1.43-.421-.337-.84-.712-1.262-1.104.033-.03.064-.06.094-.093 1.925-1.945 2.324-3.718-.725-6.766l-.444-.443-.441.443c-3.046 3.048-2.657 4.824-.725 6.766l.09.093c-.418.392-.84.78-1.255 1.104-1.189-1.003-2.07-1.43-3.037-1.43-1.017.013-1.97.54-3.342 1.443l-.602.394.47.547c1.63 1.893 3.278 2.116 4.92 1.489a7.392 7.392 0 0 0 1.517-.819c.162.15.307.289.452.428l.294.28.37.352c.126.122.252.243.378.36l-.156.156-.321.323c-1.71 1.718-3.461 3.472-5.19 4.12a54.38 54.38 0 0 0-1.804-.44c-2.956-.703-6.15-1.521-7.992-3.841a2.695 2.695 0 0 0 2.187-.528c1.355-1.178-.02-3.488-1.894-3.1-2.35.473-2.06 3.068-.966 4.53 2.105 2.66 5.183 3.394 8.35 4.15l.022.005c2.792.66 5.66 1.342 7.818 3.44a6.663 6.663 0 0 0-1.02 1.94 10.401 10.401 0 0 0 .032 6.08c.266.91.635 1.786 1.101 2.611a11.055 11.055 0 0 1-2.045 2.343c-1.986 1.715-3.61 2.265-6.098 2.265H2.534a1.347 1.347 0 0 0-.494-.53zm68.035-25.327c.077.16.1.34.067.515-.141.767-1.075.935-1.719.602-.644-.334-.666-1.058-.064-1.495.602-.437 1.433-.437 1.716.378zm-13.34-.514c.811-.65 1.404-.935 1.967-.935v-.013c.56.01 1.182.304 2.025.825-1.023.909-2.025.987-3.01.608a5.618 5.618 0 0 1-.982-.485zm-10.78-.11c.84-.521 1.461-.825 2.022-.825l.012-.013c.564-.007 1.156.288 1.968.935-.31.198-.64.365-.982.498-.998.392-1.987.324-3.02-.595zm-7.7 1.74c-.602.311-1.577.165-1.719-.601a.832.832 0 0 1 .068-.515c.283-.815 1.156-.79 1.716-.378.56.41.538 1.184-.064 1.494zm15.356-4.478l-.28.207-.277-.207c-1.252-1.265-1.558-2.462.226-4.461l.051-.046.055.046c1.784 2 1.481 3.196.225 4.461zm-.264 4.255h-.029c-.283-.259-.58-.543-.779-.737-.2-.195-.4-.386-.596-.57a84.1 84.1 0 0 0 1.388-1.18c.5.433 1.111.947 1.391 1.18-.196.184-.348.33-.595.57-.248.239-.496.478-.78.737zm4.795 5.993a12.345 12.345 0 0 0-4.81 2.776l.012.016a12.31 12.31 0 0 0-4.82-2.792c1.466-.901 2.864-2.303 4.24-3.682l.068-.069.5-.491c.215.207.421.41.502.491l.236.236c1.331 1.324 2.664 2.65 4.072 3.515zm-3.845 7.35V34v.002zm-.296-1.293c.14.42.238.853.296 1.293a2.142 2.142 0 0 1-.032.23c-.02.102-.046.203-.077.301-.172.488-.47.92-.866 1.25a2.616 2.616 0 0 1-.973-1.78c.057-.44.155-.873.293-1.294.161-.493.39-.96.68-1.389.292.428.52.895.679 1.389zm-1.314 5.329a10.787 10.787 0 0 1-.322-1.408h.042c.186.17.384.327.593.47l.35.242.355-.243c.209-.142.407-.3.592-.472a10.54 10.54 0 0 1-.322 1.41c-.17.57-.386 1.125-.644 1.66a11.596 11.596 0 0 1-.644-1.66z"></path>
      <path d="M2.057 61.5a1.344 1.344 0 0 0-.711-.205v.01A1.342 1.342 0 0 0 .166 62a1.358 1.358 0 0 0 .555 1.857 1.34 1.34 0 0 0 1.832-.61H104.77c.135.273.357.493.632.624a1.339 1.339 0 0 0 1.63-.38 1.357 1.357 0 0 0-.749-2.16 1.34 1.34 0 0 0-.881.096c-.275.13-.497.351-.632.625H2.553a1.353 1.353 0 0 0-.496-.551z"></path>
      <path fill-rule="evenodd" clip-rule="evenodd" d="M71.414 33.107a13.4 13.4 0 0 0 .995-.104v.023c.406-.061.808-.143 1.204-.246 2.02-.534 3.507-1.595 4.273-3.013l.467-.918-1.03-.023c-4.678-.11-5.5 1.216-6.55 2.912a7.219 7.219 0 0 1-2.872 2.89c-.457.254-.928.484-1.41.688-.42.178-.85.33-1.288.457-2.041.56-3.606.294-4.572-.411a2.906 2.906 0 0 1-1.288-1.97 2.746 2.746 0 0 1 .286-1.58 3.852 3.852 0 0 1 1.163-1.368 4.208 4.208 0 0 1 3.297-.754c.116.02.235.045.354.077l.248.065c-.14.03-.278.07-.412.123-.31.112-.59.291-.824.524-1.32 1.372.28 3.446 1.98 2.99 2.544-.69 2.16-3.98-.264-4.808a9.135 9.135 0 0 0-.428-.12 6.463 6.463 0 0 0-.422-.09 5.449 5.449 0 0 0-4.27.97 5.13 5.13 0 0 0-1.545 1.828 4.02 4.02 0 0 0-.406 2.3 4.165 4.165 0 0 0 1.8 2.832c1.252.925 3.19 1.291 5.641.602.491-.138.973-.307 1.443-.505a15.43 15.43 0 0 0 1.532-.75 7.876 7.876 0 0 0 2.898-2.621zm1.887-1.57c-.315.081-.65.152-1.01.207.624-.877 1.461-1.53 3.766-1.653a6.152 6.152 0 0 1-2.756 1.446zm-8.805.765a.939.939 0 0 1-.343-.558h-.016c-.151-1.122 1.536-1.239 1.749-.307a.976.976 0 0 1-.251.79 1.174 1.174 0 0 1-.516.271.931.931 0 0 1-.623-.196z"></path>
      <path fill-rule="evenodd" clip-rule="evenodd" d="M71.61 33.77c3.498 0 4.927 1.055 5.561 4.025-2.936-.324-5.039-.647-5.56-4.025zm3.961 2.76c-.905-.256-1.964-.78-2.402-1.666a3.5 3.5 0 0 1 2.402 1.666zM64.514 20.06c.283 3.14-.322 4.3-3.477 4.854-.216-2.912.576-4.122 3.477-4.853zm-1.284 2.745a2.138 2.138 0 0 1-1.17.831c.065-1.133.506-1.812 1.556-2.216.034.492-.103.982-.386 1.385zm6.44 6.911c-.497-3.275.479-5.365 3.815-6.795.814 4.64-1.993 6.038-3.816 6.795zm.872-1.618c1.471-.97 2.054-1.686 2.08-3.608-1.188.97-1.955 2.029-2.08 3.608zm-12.3-12.878c2.824-2.873 4.27-2.763 8.568-1.76-1.932 2.89-5.004 2.676-8.568 1.76zm6.726-1.271c-1.455 1.1-2.966.96-4.534.799 1.151-1.112 2.851-.955 4.484-.804l.05.005zm-1.33-8.057c-4.285.621-6.704 3.56-6.42 7.442v.01c3.638-.78 6.382-3.087 6.42-7.452zM62.19 7.52c-.412 2.148-1.623 3.371-3.632 4.09v-.004a4.995 4.995 0 0 1 1.028-2.356 4.96 4.96 0 0 1 2.06-1.527c.174-.074.354-.142.544-.203zM43.07 5.892c.041 4.355 2.775 6.662 6.42 7.442v.016c.283-3.899-2.135-6.81-6.42-7.458zm4.053 3.361a4.995 4.995 0 0 1 1.027 2.356v.004c-2.009-.719-3.232-1.935-3.635-4.09.193.061.374.13.547.204a4.96 4.96 0 0 1 2.06 1.526zm1.343 5.967c-3.565.916-6.656 1.13-8.568-1.76 4.298-1.003 5.744-1.113 8.568 1.76zm-6.712-1.273c1.632-.151 3.36-.312 4.52.8-1.569.172-3.08.302-4.535-.798l.015-.002zm-4.716 15.769c-1.819-.758-4.63-2.155-3.815-6.795 3.336 1.43 4.311 3.52 3.816 6.795zm-.872-1.618c-.126-1.58-.892-2.621-2.08-3.608.029 1.922.608 2.65 2.08 3.608zm6.014-8.038c2.899.722 3.69 1.923 3.475 4.854-3.152-.54-3.758-1.702-3.474-4.853zm.915 1.36c1.047.404 1.485 1.083 1.552 2.216a2.136 2.136 0 0 1-1.168-.83 2.153 2.153 0 0 1-.384-1.386zm-8.017 12.343c-.522 3.395-2.625 3.705-5.561 4.026.644-2.97 2.064-4.022 5.56-4.026zm-2.942 1.666a3.508 3.508 0 0 1 1.38-.572c-.435.887-1.494 1.41-2.399 1.666a3.527 3.527 0 0 1 1.02-1.095z"></path>
      <path fill-rule="evenodd" clip-rule="evenodd" d="M33.072 32.75c.395.103.796.185 1.2.247l-.019.019c.319.045.65.08.998.104a7.903 7.903 0 0 0 2.898 2.62 15.43 15.43 0 0 0 1.533.751c.47.198.952.367 1.442.505 2.45.692 4.39.307 5.639-.602a4.135 4.135 0 0 0 1.803-2.831 4.02 4.02 0 0 0-.406-2.3 5.129 5.129 0 0 0-1.545-1.829 5.461 5.461 0 0 0-4.27-.97 7.536 7.536 0 0 0-.85.21c-2.425.828-2.808 4.119-.264 4.808 1.7.456 3.3-1.634 1.98-2.99a2.253 2.253 0 0 0-.824-.524 2.528 2.528 0 0 0-.412-.123l.247-.065c.12-.032.239-.058.355-.077a4.206 4.206 0 0 1 3.3.754c.49.357.888.826 1.162 1.368.25.487.35 1.036.287 1.58a2.92 2.92 0 0 1-1.288 1.97c-.97.705-2.53.983-4.572.41a11.55 11.55 0 0 1-1.288-.456 14.713 14.713 0 0 1-1.41-.689 7.217 7.217 0 0 1-2.873-2.89l-.003-.004c-1.048-1.684-1.872-3.007-6.546-2.907l-1.03.023.492.905c.764 1.405 2.245 2.466 4.264 2.984zm7.711-1.32c.21-.931 1.897-.815 1.749.308h-.013a.94.94 0 0 1-.966.754 1.167 1.167 0 0 1-.519-.272.972.972 0 0 1-.25-.79zm-10.155-1.346c2.305.123 3.142.777 3.767 1.654-.367-.055-.69-.126-1.011-.207a6.152 6.152 0 0 1-2.756-1.447zM52.967 9.238l.377.469.38-.482c.97-1.21 1.674-2.427 1.81-3.818.135-1.392-.31-2.91-1.642-4.679L53.37.032 53.344 0l-.022.032-.522.709c-1.32 1.767-1.777 3.287-1.642 4.679.135 1.39.843 2.607 1.81 3.818zm-.502-3.945c-.087-.909.158-1.909.88-3.077.724 1.168.968 2.168.881 3.077a4.987 4.987 0 0 1-.882 2.265 5.055 5.055 0 0 1-.879-2.265zM.991 50.032v-.615l4.28.01c1.259 0 2.15.184 2.83.666a2.782 2.782 0 0 1 1.146 2.388c0 2.197-1.61 3.242-3.297 3.443a5.02 5.02 0 0 1-.699.036l-1.143-.308v2.356c0 1.384.161 1.472 1.61 1.579v.595H.888v-.586c1.25-.106 1.414-.23 1.414-1.579v-6.39c0-1.42-.164-1.508-1.31-1.595zm3.136.506a.796.796 0 0 0-.022.335v4.103a2.99 2.99 0 0 0 1.04.184c.792 0 2.08-.51 2.08-2.607 0-1.822-1.11-2.47-2.221-2.47a1.081 1.081 0 0 0-.719.16.794.794 0 0 0-.158.295zm13.286 8.398l.177.55.01-.003-1.642.91c-.324 0-.638-.115-.886-.324a1.917 1.917 0 0 1-.425-.67l-.279.188c-.578.39-1.196.808-1.55.808a2.11 2.11 0 0 1-1.506-.608 2.132 2.132 0 0 1-.635-1.501c0-.86.415-1.333 1.288-1.68.953-.313 2.238-.77 2.614-1.116v-.35c0-1.047-.444-1.694-1.162-1.694a.82.82 0 0 0-.644.307 3.19 3.19 0 0 0-.463 1.116.586.586 0 0 1-.612.486c-.374 0-.908-.363-.908-.81 0-.274.193-.465.55-.737a7.971 7.971 0 0 1 2.615-1.184 2.291 2.291 0 0 1 1.539.501c.644.524.811 1.2.811 2.071v2.886c0 .773.261 1.01.516 1.01a1.61 1.61 0 0 0 .592-.156zm-3.816.246c.365-.025.712-.17.986-.414l.02-2.572c-.358.168-.877.43-1.218.614-.557.272-.857.58-.857 1.152a1.133 1.133 0 0 0 .634 1.111c.136.066.284.103.435.11z"></path>
      <path d="M21.251 52.601v1.757l.045.006c.573-.964 1.23-1.737 1.91-1.737a1.024 1.024 0 0 1 1.043.97 1.156 1.156 0 0 1-.699 1.062.379.379 0 0 1-.467-.071 1.042 1.042 0 0 0-.73-.324c-.377 0-.773.307-1.095 1.116v3.02c0 1.025.077 1.112 1.365 1.229v.553h-4.218v-.544c.969-.116 1.091-.203 1.091-1.213v-3.504c0-.955-.103-1.026-.943-1.165v-.508a11.98 11.98 0 0 0 2.698-.647zm12.043 7.028v.553l.006.026-2.611.02c-.44-.537-1.007-1.348-1.586-2.177-.259-.371-.52-.746-.774-1.101-.184-.246-.306-.347-.429-.347a.383.383 0 0 0-.2.02v1.757c0 1.045.13 1.116 1.128 1.249v.553h-4.01v-.547c1.031-.133 1.147-.22 1.147-1.249v-7.603c0-.974-.096-1.065-1.024-1.152v-.528a20.47 20.47 0 0 0 2.753-.57v7.569c.392-.077.743-.296.986-.615a9.628 9.628 0 0 0 1.007-1.398c.226-.391.19-.576-.473-.647v-.56l3.478-.142v.521c-1.057.175-1.565.379-2.064.896-.446.46-.863.946-1.25 1.456.393.59 1.935 2.592 2.415 3.145.535.58.883.774 1.5.87z"></path>
      <path fill-rule="evenodd" clip-rule="evenodd" d="M46.141 59.03c.29.34.666.595 1.089.738l.006-.003-.09.556c-.073 0-.157-.003-.245-.007a6.179 6.179 0 0 0-.306-.009c-1.687-.071-2.331-.505-3.004-1.566-.395-.568-.793-1.299-1.169-1.99-.101-.186-.201-.37-.3-.547a1.15 1.15 0 0 0-1.181-.647h-.454v2.433c0 1.369.148 1.476 1.4 1.58v.614h-4.652v-.615c1.269-.103 1.452-.21 1.452-1.579v-6.42c0-1.352-.164-1.458-1.381-1.546v-.614h4.379c1.304 0 2.109.148 2.753.575a2.5 2.5 0 0 1 1.13 2.2c0 1.457-.892 2.279-2.06 2.78.27.485.894 1.602 1.393 2.355.353.613.769 1.187 1.24 1.712zm-5.673-8.086v3.915l.628.01a2.406 2.406 0 0 0 1.61-.446 2.32 2.32 0 0 0 .866-1.984c0-1.708-1.111-2.355-2.17-2.355-.426 0-.635.097-.767.184s-.167.262-.167.676z"></path>
      <path d="M53.849 58.248a.523.523 0 0 0 .007-.007h-.013l.005.007z"></path>
      <path fill-rule="evenodd" clip-rule="evenodd" d="M52.014 58.995a2.653 2.653 0 0 0 1.834-.747l.317.44c-1.004 1.374-2.205 1.698-2.85 1.698-2.105 0-3.329-1.644-3.329-3.585a4.337 4.337 0 0 1 1.188-3.003 3.564 3.564 0 0 1 2.444-1.184h.02a2.64 2.64 0 0 1 1.838.797c.485.497.757 1.166.757 1.863 0 .359-.068.566-.428.614-.287.052-2.325.207-4.08.279.035 1.905 1.13 2.828 2.29 2.828zm.47-4.032c.02-.841-.45-1.65-1.184-1.65-.7 0-1.32.776-1.504 2.045.785 0 1.52-.016 2.331-.049.264 0 .357-.074.357-.346z"></path>
      <path d="M60.358 54.76l.002.015v-.016h-.002z"></path>
      <path d="M59.968 52.921c.185.6.316 1.215.39 1.839l-.542.154c-.406-1.06-.924-1.666-1.694-1.666a.964.964 0 0 0-.672.306.973.973 0 0 0-.261.694c0 .599.486.958 1.31 1.333 1.285.534 2.183 1.149 2.183 2.388 0 1.598-1.5 2.4-2.865 2.4a3.729 3.729 0 0 1-2.045-.585 10.947 10.947 0 0 1-.26-2.12l.566-.054c.306 1.061 1.04 2.087 2.028 2.087a.961.961 0 0 0 .94-.602.974.974 0 0 0 .071-.388c0-.615-.39-1.01-1.265-1.44l-.038-.019c-.873-.429-2.078-1.02-2.078-2.353 0-1.252 1.025-2.297 2.692-2.297a3.397 3.397 0 0 1 1.54.323zm4.211-1.519a1.043 1.043 0 0 1-.402.076 1.055 1.055 0 0 1-1.026-.65 1.069 1.069 0 0 1 .619-1.415 1.03 1.03 0 0 1 .423-.06 1.03 1.03 0 0 1 .973.668c.05.132.072.272.067.412a1.058 1.058 0 0 1-.312.743 1.044 1.044 0 0 1-.342.226zm1.71 8.227v.553h-3.97v-.544c.972-.132 1.095-.203 1.095-1.336v-3.307c0-1.064-.078-1.1-.966-1.239v-.527c.93-.113 1.846-.322 2.733-.625v5.688c0 1.117.087 1.204 1.108 1.337z"></path>
      <path fill-rule="evenodd" clip-rule="evenodd" d="M74.647 59.153l.448.02.013-.017v.576c-.99.154-1.968.37-2.93.647v-.996l-1.021.647a2.045 2.045 0 0 1-1.005.362c-1.359 0-3.22-1.213-3.22-3.637 0-2.284 1.993-4.135 4.386-4.135.286.019.57.064.847.136v-1.99c0-.957-.097-1.012-1.17-1.116v-.543a18.89 18.89 0 0 0 2.934-.573v9.6c0 .86.074.951.718 1.02zm-3.687.02a2.163 2.163 0 0 0 1.205-.415v-4.565a1.589 1.589 0 0 0-1.379-.825c-.544 0-1.86.482-1.86 2.931 0 1.993 1.178 2.873 2.034 2.873zm9.135-.178a2.653 2.653 0 0 0 1.842-.754l.306.446c-1.005 1.375-2.203 1.699-2.846 1.699-2.106 0-3.33-1.644-3.33-3.585a4.35 4.35 0 0 1 1.185-3.003 3.564 3.564 0 0 1 2.447-1.184h.02a2.648 2.648 0 0 1 1.836.799c.485.497.757 1.165.759 1.86 0 .36-.071.567-.432.615-.286.052-2.321.207-4.076.279.035 1.905 1.127 2.828 2.29 2.828zm.47-4.032c.016-.841-.454-1.65-1.188-1.65-.699 0-1.317.776-1.503 2.045.788 0 1.523-.016 2.334-.049.26 0 .357-.074.357-.346z"></path>
      <path d="M91.803 59.629v.553H88.15v-.534c.805-.142.892-.213.892-1.294V55.52c0-1.175-.463-1.696-1.268-1.696a2.346 2.346 0 0 0-1.469.67v3.921c0 1.03.071 1.097.892 1.214v.553h-3.773v-.547c1.04-.152 1.123-.204 1.123-1.249v-3.433c0-1.01-.083-1.061-.924-1.2v-.528c.915-.12 1.814-.336 2.682-.647v1.256c.31-.236.648-.482 1.044-.738a2.27 2.27 0 0 1 1.317-.482c1.346 0 2.134.97 2.134 2.588v3.213c0 1.03.103 1.081 1.002 1.214zm6.227-.809c.317-.133.603-.33.84-.58l.355.457c-.754 1.01-1.842 1.73-2.808 1.73-2.174 0-3.462-1.724-3.462-3.558.01-.633.166-1.255.456-1.816a4.068 4.068 0 0 1 1.216-1.42 4.844 4.844 0 0 1 2.634-1 2.419 2.419 0 0 1 1.436.411.646.646 0 0 1 .286.59c0 .455-.406.87-.644.87a.501.501 0 0 1-.338-.188c-.615-.55-1.127-.786-1.626-.786-.866 0-1.652.84-1.652 2.533 0 2.233 1.5 2.951 2.306 2.951a2.47 2.47 0 0 0 1-.194z"></path>
      <path fill-rule="evenodd" clip-rule="evenodd" d="M104.212 59.014a2.655 2.655 0 0 0 1.845-.754l.306.447c-1.004 1.375-2.202 1.698-2.846 1.698-2.106 0-3.33-1.643-3.33-3.585a4.338 4.338 0 0 1 1.189-3.002 3.555 3.555 0 0 1 2.444-1.185h.019a2.646 2.646 0 0 1 1.837.798c.485.498.757 1.166.758 1.862 0 .36-.071.566-.431.615-.284.052-2.322.207-4.077.278.032 1.906 1.127 2.828 2.286 2.828zm.474-4.032c.016-.84-.454-1.65-1.188-1.65-.696 0-1.317.777-1.504 2.045.789 0 1.523-.016 2.334-.048.261 0 .358-.075.358-.347z"></path>
    </g>
    <defs>
      <clipPath id="clip0">
        <path fill="#fff" d="M0 0h107.323v64H0z"></path>
      </clipPath>
    </defs>
  </symbol>
</svg>