<svg width="18" height="18" viewBox="0 0 18 18" fill="none" xmlns="http://www.w3.org/2000/svg">
<path d="M17.0059 0H0.99348C0.445169 0 0 0.44428 0 0.993479V17.0059C0 17.5551 0.445169 18 0.99348 18H9.61411V11.0293H7.26852V8.31239H9.61411V6.30883C9.61411 3.98429 11.0335 2.71784 13.1076 2.71784C14.102 2.71784 14.9547 2.79223 15.2033 2.82454V5.2543L13.7647 5.25489C12.6369 5.25489 12.4194 5.79105 12.4194 6.57736V8.3115H15.11L14.7582 11.0282H12.4191V17.9991H17.0056C17.5545 17.9991 18 17.5536 18 17.0059V0.992887C17.9997 0.44428 17.5548 0 17.0059 0Z" fill="white"/>
</svg>
