<svg width="18" height="18" viewBox="0 0 18 18" fill="none" xmlns="http://www.w3.org/2000/svg">
<path fill-rule="evenodd" clip-rule="evenodd" d="M9 4.49993C6.51487 4.49993 4.5 6.51477 4.5 8.99985C4.5 11.4849 6.51487 13.4998 9 13.4998C11.4851 13.4998 13.5 11.4849 13.5 8.99985C13.5 6.51477 11.4851 4.49993 9 4.49993ZM9 11.8123C7.44975 11.8123 6.1875 10.5501 6.1875 8.99985C6.1875 7.4485 7.44975 6.1874 9 6.1874C10.5503 6.1874 11.8125 7.4485 11.8125 8.99985C11.8125 10.5501 10.5503 11.8123 9 11.8123Z" fill="white"/>
<path d="M14.4371 4.16243C14.4371 4.49359 14.1687 4.76205 13.8375 4.76205C13.5063 4.76205 13.2379 4.49359 13.2379 4.16243C13.2379 3.83127 13.5063 3.56282 13.8375 3.56282C14.1687 3.56282 14.4371 3.83127 14.4371 4.16243Z" fill="white"/>
<path fill-rule="evenodd" clip-rule="evenodd" d="M12.375 0H5.625C2.51888 0 0 2.51883 0 5.62491V12.3748C0 15.4809 2.51888 17.9997 5.625 17.9997H12.375C15.4811 17.9997 18 15.4809 18 12.3748V5.62491C18 2.51883 15.4811 0 12.375 0ZM16.3125 12.3748C16.3125 14.546 14.5463 16.3122 12.375 16.3122H5.625C3.45375 16.3122 1.6875 14.546 1.6875 12.3748V5.62491C1.6875 3.45369 3.45375 1.68747 5.625 1.68747H12.375C14.5463 1.68747 16.3125 3.45369 16.3125 5.62491V12.3748Z" fill="white"/>
</svg>
