<svg width="18" height="16" viewBox="0 0 18 16" fill="none" xmlns="http://www.w3.org/2000/svg">
<path d="M0.317934 7.51455L4.4655 9.06253L6.07086 14.2253C6.17358 14.5559 6.57792 14.6781 6.8463 14.4587L9.15823 12.574C9.40057 12.3766 9.74575 12.3667 9.99901 12.5506L14.1689 15.5779C14.456 15.7866 14.8627 15.6293 14.9347 15.2824L17.9894 0.589159C18.068 0.210205 17.6956 -0.105931 17.3348 0.0336273L0.313074 6.59999C-0.106987 6.76198 -0.103327 7.3567 0.317934 7.51455ZM5.81214 8.2385L13.918 3.24616C14.0637 3.1567 14.2136 3.35368 14.0885 3.46972L7.39878 9.68802C7.16364 9.9069 7.01196 10.1998 6.969 10.5177L6.74112 12.2065C6.71094 12.432 6.3942 12.4543 6.33198 12.2361L5.45556 9.15667C5.35518 8.80543 5.50146 8.43026 5.81214 8.2385Z" fill="white"/>
</svg>
